<mxfile host="Electron" modified="2023-04-18T14:49:29.570Z" agent="Mozilla/5.0 (Windows NT 10.0; Win64; x64) AppleWebKit/537.36 (KHTML, like Gecko) draw.io/21.1.2 Chrome/106.0.5249.199 Electron/21.4.3 Safari/537.36" etag="EXGXolM0P_9WKMthpUl0" version="21.1.2" type="device">
  <diagram name="Страница 1" id="ih_WKwnYLh3Ba3iCL5Fd">
    <mxGraphModel dx="864" dy="516" grid="1" gridSize="10" guides="1" tooltips="1" connect="1" arrows="1" fold="1" page="1" pageScale="1" pageWidth="827" pageHeight="1169" math="0" shadow="0">
      <root>
        <mxCell id="0" />
        <mxCell id="1" parent="0" />
        <mxCell id="n4S_aSzpWFt3gO5gp6HI-9" value="" style="edgeStyle=orthogonalEdgeStyle;rounded=0;orthogonalLoop=1;jettySize=auto;html=1;" edge="1" parent="1" source="n4S_aSzpWFt3gO5gp6HI-1" target="n4S_aSzpWFt3gO5gp6HI-2">
          <mxGeometry relative="1" as="geometry" />
        </mxCell>
        <mxCell id="n4S_aSzpWFt3gO5gp6HI-1" value="Start" style="ellipse;whiteSpace=wrap;html=1;fillColor=#d5e8d4;strokeColor=#82b366;" vertex="1" parent="1">
          <mxGeometry x="230" y="30" width="180" height="80" as="geometry" />
        </mxCell>
        <mxCell id="n4S_aSzpWFt3gO5gp6HI-10" value="" style="edgeStyle=orthogonalEdgeStyle;rounded=0;orthogonalLoop=1;jettySize=auto;html=1;" edge="1" parent="1" source="n4S_aSzpWFt3gO5gp6HI-2" target="n4S_aSzpWFt3gO5gp6HI-3">
          <mxGeometry relative="1" as="geometry" />
        </mxCell>
        <mxCell id="n4S_aSzpWFt3gO5gp6HI-2" value="string[] array1&lt;br&gt;string[] array2&lt;br&gt;int count = 0" style="shape=parallelogram;perimeter=parallelogramPerimeter;whiteSpace=wrap;html=1;fixedSize=1;fillColor=#dae8fc;strokeColor=#6c8ebf;" vertex="1" parent="1">
          <mxGeometry x="230" y="150" width="180" height="60" as="geometry" />
        </mxCell>
        <mxCell id="n4S_aSzpWFt3gO5gp6HI-11" value="" style="edgeStyle=orthogonalEdgeStyle;rounded=0;orthogonalLoop=1;jettySize=auto;html=1;" edge="1" parent="1" source="n4S_aSzpWFt3gO5gp6HI-3" target="n4S_aSzpWFt3gO5gp6HI-4">
          <mxGeometry relative="1" as="geometry" />
        </mxCell>
        <mxCell id="n4S_aSzpWFt3gO5gp6HI-15" style="edgeStyle=orthogonalEdgeStyle;rounded=0;orthogonalLoop=1;jettySize=auto;html=1;entryX=0;entryY=0.5;entryDx=0;entryDy=0;" edge="1" parent="1" source="n4S_aSzpWFt3gO5gp6HI-3" target="n4S_aSzpWFt3gO5gp6HI-6">
          <mxGeometry relative="1" as="geometry" />
        </mxCell>
        <mxCell id="n4S_aSzpWFt3gO5gp6HI-3" value="for (int i = 0;&lt;br&gt;i &amp;lt; array1.Lenght;&lt;br&gt;i ++)" style="shape=hexagon;perimeter=hexagonPerimeter2;whiteSpace=wrap;html=1;fixedSize=1;fillColor=#fff2cc;strokeColor=#d6b656;" vertex="1" parent="1">
          <mxGeometry x="230" y="240" width="180" height="80" as="geometry" />
        </mxCell>
        <mxCell id="n4S_aSzpWFt3gO5gp6HI-12" value="" style="edgeStyle=orthogonalEdgeStyle;rounded=0;orthogonalLoop=1;jettySize=auto;html=1;" edge="1" parent="1" source="n4S_aSzpWFt3gO5gp6HI-4" target="n4S_aSzpWFt3gO5gp6HI-5">
          <mxGeometry relative="1" as="geometry" />
        </mxCell>
        <mxCell id="n4S_aSzpWFt3gO5gp6HI-13" style="edgeStyle=orthogonalEdgeStyle;rounded=0;orthogonalLoop=1;jettySize=auto;html=1;entryX=-0.006;entryY=0.425;entryDx=0;entryDy=0;entryPerimeter=0;" edge="1" parent="1" source="n4S_aSzpWFt3gO5gp6HI-4" target="n4S_aSzpWFt3gO5gp6HI-3">
          <mxGeometry relative="1" as="geometry">
            <Array as="points">
              <mxPoint x="180" y="390" />
              <mxPoint x="180" y="280" />
              <mxPoint x="229" y="280" />
            </Array>
          </mxGeometry>
        </mxCell>
        <mxCell id="n4S_aSzpWFt3gO5gp6HI-4" value="if (array1[i].Lenght &amp;lt;= 3)" style="rhombus;whiteSpace=wrap;html=1;fillColor=#f8cecc;strokeColor=#b85450;" vertex="1" parent="1">
          <mxGeometry x="225" y="350" width="190" height="80" as="geometry" />
        </mxCell>
        <mxCell id="n4S_aSzpWFt3gO5gp6HI-14" style="edgeStyle=orthogonalEdgeStyle;rounded=0;orthogonalLoop=1;jettySize=auto;html=1;" edge="1" parent="1" source="n4S_aSzpWFt3gO5gp6HI-5">
          <mxGeometry relative="1" as="geometry">
            <mxPoint x="180" y="390" as="targetPoint" />
          </mxGeometry>
        </mxCell>
        <mxCell id="n4S_aSzpWFt3gO5gp6HI-5" value="array2[count] = array1[i]&lt;br&gt;count++" style="rounded=0;whiteSpace=wrap;html=1;fillColor=#ffe6cc;strokeColor=#d79b00;" vertex="1" parent="1">
          <mxGeometry x="225" y="470" width="190" height="60" as="geometry" />
        </mxCell>
        <mxCell id="n4S_aSzpWFt3gO5gp6HI-16" value="" style="edgeStyle=orthogonalEdgeStyle;rounded=0;orthogonalLoop=1;jettySize=auto;html=1;" edge="1" parent="1" source="n4S_aSzpWFt3gO5gp6HI-6" target="n4S_aSzpWFt3gO5gp6HI-8">
          <mxGeometry relative="1" as="geometry" />
        </mxCell>
        <mxCell id="n4S_aSzpWFt3gO5gp6HI-6" value="Input[]&lt;br&gt;Print[]" style="shape=document;whiteSpace=wrap;html=1;boundedLbl=1;fillColor=#e1d5e7;strokeColor=#9673a6;" vertex="1" parent="1">
          <mxGeometry x="540" y="240" width="120" height="80" as="geometry" />
        </mxCell>
        <mxCell id="n4S_aSzpWFt3gO5gp6HI-8" value="Finish" style="ellipse;whiteSpace=wrap;html=1;fillColor=#d5e8d4;strokeColor=#82b366;" vertex="1" parent="1">
          <mxGeometry x="515" y="360" width="170" height="80" as="geometry" />
        </mxCell>
        <mxCell id="n4S_aSzpWFt3gO5gp6HI-17" value="No" style="text;html=1;align=center;verticalAlign=middle;resizable=0;points=[];autosize=1;strokeColor=none;fillColor=none;" vertex="1" parent="1">
          <mxGeometry x="430" y="255" width="40" height="30" as="geometry" />
        </mxCell>
        <mxCell id="n4S_aSzpWFt3gO5gp6HI-18" value="Yes" style="text;html=1;align=center;verticalAlign=middle;resizable=0;points=[];autosize=1;strokeColor=none;fillColor=none;" vertex="1" parent="1">
          <mxGeometry x="310" y="315" width="40" height="30" as="geometry" />
        </mxCell>
        <mxCell id="n4S_aSzpWFt3gO5gp6HI-19" value="Yes" style="text;html=1;align=center;verticalAlign=middle;resizable=0;points=[];autosize=1;strokeColor=none;fillColor=none;" vertex="1" parent="1">
          <mxGeometry x="310" y="425" width="40" height="30" as="geometry" />
        </mxCell>
        <mxCell id="n4S_aSzpWFt3gO5gp6HI-20" value="No" style="text;html=1;align=center;verticalAlign=middle;resizable=0;points=[];autosize=1;strokeColor=none;fillColor=none;" vertex="1" parent="1">
          <mxGeometry x="190" y="355" width="40" height="30" as="geometry" />
        </mxCell>
      </root>
    </mxGraphModel>
  </diagram>
</mxfile>
